<?xml version="1.0" standalone="no"?>
<svg xmlns:xlink="http://www.w3.org/1999/xlink" id="wave" style="transform:rotate(0deg); transition: 0.3s" viewBox="0 0 1440 470" version="1.1" xmlns="http://www.w3.org/2000/svg"><defs><linearGradient id="sw-gradient-0" x1="0" x2="0" y1="1" y2="0"><stop stop-color="rgba(243, 106, 62, 1)" offset="0%"/><stop stop-color="rgba(255, 179, 11, 1)" offset="100%"/></linearGradient></defs><path style="transform:translate(0, 0px); opacity:1" fill="url(#sw-gradient-0)" d="M0,94L10.4,141C20.9,188,42,282,63,336.8C83.5,392,104,407,125,376C146.1,345,167,266,188,227.2C208.7,188,230,188,250,195.8C271.3,204,292,219,313,227.2C333.9,235,355,235,376,219.3C396.5,204,417,172,438,156.7C459.1,141,480,141,501,141C521.7,141,543,141,563,188C584.3,235,605,329,626,352.5C647,376,668,329,689,321.2C709.6,313,730,345,751,329C772.2,313,793,251,814,195.8C834.8,141,856,94,877,125.3C897.4,157,918,266,939,266.3C960,266,981,157,1002,101.8C1022.6,47,1043,47,1064,86.2C1085.2,125,1106,204,1127,266.3C1147.8,329,1169,376,1190,399.5C1210.4,423,1231,423,1252,376C1273,329,1294,235,1315,235C1335.7,235,1357,329,1377,313.3C1398.3,298,1419,172,1440,148.8C1460.9,125,1482,204,1492,242.8L1502.6,282L1502.6,470L1492.2,470C1481.7,470,1461,470,1440,470C1419.1,470,1398,470,1377,470C1356.5,470,1336,470,1315,470C1293.9,470,1273,470,1252,470C1231.3,470,1210,470,1190,470C1168.7,470,1148,470,1127,470C1106.1,470,1085,470,1064,470C1043.5,470,1023,470,1002,470C980.9,470,960,470,939,470C918.3,470,897,470,877,470C855.7,470,835,470,814,470C793,470,772,470,751,470C730.4,470,710,470,689,470C667.8,470,647,470,626,470C605.2,470,584,470,563,470C542.6,470,522,470,501,470C480,470,459,470,438,470C417.4,470,397,470,376,470C354.8,470,334,470,313,470C292.2,470,271,470,250,470C229.6,470,209,470,188,470C167,470,146,470,125,470C104.3,470,83,470,63,470C41.7,470,21,470,10,470L0,470Z"/><defs><linearGradient id="sw-gradient-1" x1="0" x2="0" y1="1" y2="0"><stop stop-color="rgba(232.552, 70.01, 17.807, 1)" offset="0%"/><stop stop-color="rgba(255, 179, 11, 1)" offset="100%"/></linearGradient></defs><path style="transform:translate(0, 50px); opacity:0.9" fill="url(#sw-gradient-1)" d="M0,282L10.4,242.8C20.9,204,42,125,63,101.8C83.5,78,104,110,125,133.2C146.1,157,167,172,188,211.5C208.7,251,230,313,250,344.7C271.3,376,292,376,313,383.8C333.9,392,355,407,376,399.5C396.5,392,417,360,438,352.5C459.1,345,480,360,501,352.5C521.7,345,543,313,563,282C584.3,251,605,219,626,219.3C647,219,668,251,689,266.3C709.6,282,730,282,751,305.5C772.2,329,793,376,814,344.7C834.8,313,856,204,877,156.7C897.4,110,918,125,939,148.8C960,172,981,204,1002,250.7C1022.6,298,1043,360,1064,321.2C1085.2,282,1106,141,1127,117.5C1147.8,94,1169,188,1190,235C1210.4,282,1231,282,1252,282C1273,282,1294,282,1315,250.7C1335.7,219,1357,157,1377,125.3C1398.3,94,1419,94,1440,125.3C1460.9,157,1482,219,1492,250.7L1502.6,282L1502.6,470L1492.2,470C1481.7,470,1461,470,1440,470C1419.1,470,1398,470,1377,470C1356.5,470,1336,470,1315,470C1293.9,470,1273,470,1252,470C1231.3,470,1210,470,1190,470C1168.7,470,1148,470,1127,470C1106.1,470,1085,470,1064,470C1043.5,470,1023,470,1002,470C980.9,470,960,470,939,470C918.3,470,897,470,877,470C855.7,470,835,470,814,470C793,470,772,470,751,470C730.4,470,710,470,689,470C667.8,470,647,470,626,470C605.2,470,584,470,563,470C542.6,470,522,470,501,470C480,470,459,470,438,470C417.4,470,397,470,376,470C354.8,470,334,470,313,470C292.2,470,271,470,250,470C229.6,470,209,470,188,470C167,470,146,470,125,470C104.3,470,83,470,63,470C41.7,470,21,470,10,470L0,470Z"/><defs><linearGradient id="sw-gradient-2" x1="0" x2="0" y1="1" y2="0"><stop stop-color="rgba(157.418, 91.789, 70.711, 1)" offset="0%"/><stop stop-color="rgba(255, 179, 11, 1)" offset="100%"/></linearGradient></defs><path style="transform:translate(0, 100px); opacity:0.8" fill="url(#sw-gradient-2)" d="M0,376L10.4,336.8C20.9,298,42,219,63,156.7C83.5,94,104,47,125,31.3C146.1,16,167,31,188,101.8C208.7,172,230,298,250,305.5C271.3,313,292,204,313,195.8C333.9,188,355,282,376,336.8C396.5,392,417,407,438,368.2C459.1,329,480,235,501,180.2C521.7,125,543,110,563,141C584.3,172,605,251,626,297.7C647,345,668,360,689,360.3C709.6,360,730,345,751,305.5C772.2,266,793,204,814,148.8C834.8,94,856,47,877,54.8C897.4,63,918,125,939,188C960,251,981,313,1002,344.7C1022.6,376,1043,376,1064,321.2C1085.2,266,1106,157,1127,125.3C1147.8,94,1169,141,1190,195.8C1210.4,251,1231,313,1252,352.5C1273,392,1294,407,1315,368.2C1335.7,329,1357,235,1377,227.2C1398.3,219,1419,298,1440,289.8C1460.9,282,1482,188,1492,141L1502.6,94L1502.6,470L1492.2,470C1481.7,470,1461,470,1440,470C1419.1,470,1398,470,1377,470C1356.5,470,1336,470,1315,470C1293.9,470,1273,470,1252,470C1231.3,470,1210,470,1190,470C1168.7,470,1148,470,1127,470C1106.1,470,1085,470,1064,470C1043.5,470,1023,470,1002,470C980.9,470,960,470,939,470C918.3,470,897,470,877,470C855.7,470,835,470,814,470C793,470,772,470,751,470C730.4,470,710,470,689,470C667.8,470,647,470,626,470C605.2,470,584,470,563,470C542.6,470,522,470,501,470C480,470,459,470,438,470C417.4,470,397,470,376,470C354.8,470,334,470,313,470C292.2,470,271,470,250,470C229.6,470,209,470,188,470C167,470,146,470,125,470C104.3,470,83,470,63,470C41.7,470,21,470,10,470L0,470Z"/><defs><linearGradient id="sw-gradient-3" x1="0" x2="0" y1="1" y2="0"><stop stop-color="rgba(214.338, 146.044, 124.11, 1)" offset="0%"/><stop stop-color="rgba(255, 179, 11, 1)" offset="100%"/></linearGradient></defs><path style="transform:translate(0, 150px); opacity:0.7" fill="url(#sw-gradient-3)" d="M0,94L10.4,141C20.9,188,42,282,63,282C83.5,282,104,188,125,164.5C146.1,141,167,188,188,235C208.7,282,230,329,250,336.8C271.3,345,292,313,313,289.8C333.9,266,355,251,376,274.2C396.5,298,417,360,438,376C459.1,392,480,360,501,329C521.7,298,543,266,563,235C584.3,204,605,172,626,195.8C647,219,668,298,689,313.3C709.6,329,730,282,751,258.5C772.2,235,793,235,814,266.3C834.8,298,856,360,877,383.8C897.4,407,918,392,939,391.7C960,392,981,407,1002,352.5C1022.6,298,1043,172,1064,125.3C1085.2,78,1106,110,1127,148.8C1147.8,188,1169,235,1190,242.8C1210.4,251,1231,219,1252,211.5C1273,204,1294,219,1315,242.8C1335.7,266,1357,298,1377,297.7C1398.3,298,1419,266,1440,250.7C1460.9,235,1482,235,1492,235L1502.6,235L1502.6,470L1492.2,470C1481.7,470,1461,470,1440,470C1419.1,470,1398,470,1377,470C1356.5,470,1336,470,1315,470C1293.9,470,1273,470,1252,470C1231.3,470,1210,470,1190,470C1168.7,470,1148,470,1127,470C1106.1,470,1085,470,1064,470C1043.5,470,1023,470,1002,470C980.9,470,960,470,939,470C918.3,470,897,470,877,470C855.7,470,835,470,814,470C793,470,772,470,751,470C730.4,470,710,470,689,470C667.8,470,647,470,626,470C605.2,470,584,470,563,470C542.6,470,522,470,501,470C480,470,459,470,438,470C417.4,470,397,470,376,470C354.8,470,334,470,313,470C292.2,470,271,470,250,470C229.6,470,209,470,188,470C167,470,146,470,125,470C104.3,470,83,470,63,470C41.7,470,21,470,10,470L0,470Z"/></svg>